<svg width="188" height="298" viewBox="0 0 188 298" fill="none" xmlns="http://www.w3.org/2000/svg">
<g filter="url(#filter0_d_323_5243)">
<path d="M62.1406 45.6433C65.0251 47.9606 66.7535 51.8303 66.7535 55.9704V217.442C66.7535 221.582 68.4826 225.452 71.3671 227.769L83.2252 236.945C84.956 238.335 85.993 240.657 85.993 243.141V267.01C85.993 273.003 80.3624 276.561 76.187 273.206L22.2679 227.769C20.537 226.379 19.5 224.057 19.5 221.573V22.9898C19.5 16.9975 25.1306 13.4395 29.3061 16.7937L62.1406 45.6433Z" fill="#FEFBF6" fill-opacity="0.8"/>
<path d="M99.5537 71.0757C99.5537 66.9358 101.282 63.0659 104.167 60.7486L158.695 16.9471C162.869 13.593 168.5 17.1509 168.5 23.1433V69.539C168.5 72.023 167.463 74.3448 165.732 75.7351L130.402 104.115C128.672 105.505 127.635 107.827 127.635 110.311V146.125C120.733 148.686 115.816 155.341 115.816 163.146C115.816 173.168 123.924 181.293 133.926 181.293C143.928 181.293 152.036 173.168 152.036 163.146C152.036 155.259 147.014 148.547 139.999 146.045V116.738C139.999 114.254 141.037 111.931 142.768 110.542L165.232 93.1594C166.623 92.0414 168.5 93.2273 168.5 95.2248V221.727C168.5 224.21 167.463 226.532 165.732 227.923L109.36 273.206C105.184 276.561 99.5537 273.003 99.5537 267.01V71.0757Z" fill="#FEFBF6" fill-opacity="0.8"/>
</g>
<defs>
<filter id="filter0_d_323_5243" x="0.4" y="0.4" width="187.2" height="297.2" filterUnits="userSpaceOnUse" color-interpolation-filters="sRGB">
<feFlood flood-opacity="0" result="BackgroundImageFix"/>
<feColorMatrix in="SourceAlpha" type="matrix" values="0 0 0 0 0 0 0 0 0 0 0 0 0 0 0 0 0 0 127 0" result="hardAlpha"/>
<feOffset dy="4"/>
<feGaussianBlur stdDeviation="9.55"/>
<feComposite in2="hardAlpha" operator="out"/>
<feColorMatrix type="matrix" values="0 0 0 0 0.0837426 0 0 0 0 0.145298 0 0 0 0 0.412037 0 0 0 0.68 0"/>
<feBlend mode="normal" in2="BackgroundImageFix" result="effect1_dropShadow_323_5243"/>
<feBlend mode="normal" in="SourceGraphic" in2="effect1_dropShadow_323_5243" result="shape"/>
</filter>
</defs>
</svg>
